<?xml version="1.0" standalone="no"?>
<!DOCTYPE svg PUBLIC "-//W3C//DTD SVG 20010904//EN"
 "http://www.w3.org/TR/2001/REC-SVG-20010904/DTD/svg10.dtd">
<svg version="1.0" xmlns="http://www.w3.org/2000/svg"
 width="364.000000pt" height="158.000000pt" viewBox="0 0 364.000000 158.000000"
 preserveAspectRatio="xMidYMid meet">

<g transform="translate(0.000000,158.000000) scale(0.100000,-0.100000)"
fill="#000000" stroke="none">
<path d="M539 1466 c-93 -25 -167 -83 -209 -165 -36 -71 -40 -141 -40 -663 l0
-508 558 0 c538 0 559 1 602 21 62 28 105 62 140 113 58 85 60 107 60 688 l0
528 -532 -1 c-389 0 -545 -4 -579 -13z m641 -341 l0 -115 -25 0 c-25 0 -25 0
-25 95 l0 95 -275 0 -275 0 0 -275 0 -275 91 0 c88 0 90 -1 87 -22 -3 -22 -8
-23 -110 -26 l-108 -3 0 321 0 320 320 0 320 0 0 -115z m220 -465 l0 -300
-300 0 -300 0 0 300 0 300 300 0 300 0 0 -300z"/>
<path d="M2080 1115 l0 -35 65 0 65 0 0 -235 c0 -260 -4 -281 -60 -310 -60
-31 -144 11 -157 78 -6 28 -7 29 -51 23 -25 -3 -47 -8 -49 -9 -7 -8 21 -74 45
-106 62 -83 225 -96 305 -23 11 9 29 35 41 57 20 38 21 57 24 318 l4 277 -116
0 -116 0 0 -35z"/>
<path d="M2480 805 l0 -345 45 0 45 0 0 345 0 345 -45 0 -45 0 0 -345z"/>
<path d="M2750 805 l0 -345 45 0 45 0 0 134 0 134 148 4 c158 4 198 15 249 70
72 79 69 216 -6 288 -55 52 -93 60 -300 60 l-181 0 0 -345z m386 253 c38 -21
57 -63 56 -124 -1 -52 -19 -85 -59 -111 -22 -15 -50 -18 -158 -18 l-130 0 -3
138 -3 139 133 -4 c100 -3 141 -8 164 -20z"/>
</g>
</svg>
